#!OML:ASF F:\VICON\USERDATA\INSTALL\rory3\rory3.ASF
:FULLY-SPECIFIED
:DEGREES
56
root 0.04821723554337637 17.9830366818124 11.227732527219139 -2.0432922714538733 -1.8117300738178184 -6.690967268347107
lfemur -27.87841839401075 2.954843560222262 -13.068536597565103
ltibia 51.52727828109944
lfoot -8.040125076385713 2.1029480793898907
ltoes -4.567044310720357
rfemur -2.330916326372243 6.183188191519955 34.13615606475534
rtibia 29.75154957000979
rfoot -15.00634208141106 -3.8876322781035517
rtoes 7.268664404060809
lowerback 1.0 1.1394962151269918 5.576367431853764
upperback -0.03330056647425153 2.3917260825813886 2.1462368269528618
thorax -5.580706546725814 1.080444803410655 -1.5190696008899114
lowerneck -16.127092230145735 -2.757376511082784 -1.4385453718108285
upperneck 21.529875391568947 -3.5828977113163227 0.4446259745787684
head 9.644028076535424 -1.7059016948396841 -0.07316677230762063
lclavicle -1.3559745805441904e-15 -3.0620540654023295e-15
lhumerus -35.608920895656524 5.395745601600803 82.07885512246484
lradius 22.62789946785834
lwrist 2.103714279974535
lhand -27.315218200564956 22.96274130918053
lfingers nan
lthumb -0.8627784433424557 52.84812351090825
rclavicle -9.66049970394791e-16 -2.7087575620943014e-15
rhumerus -26.800681709073217 -16.721295251322264 -80.38328118192824
rradius 24.229990034648743
rwrist -0.2791819191624132
rhand -18.24828277228384 1.0
rfingers nan
rthumb 7.8693290428571 -7.059658444047295
57
root 0.06802708124442974 17.920285993896822 12.424804214445611 -1.3554478298396284 -2.28656627030616 -7.159156403365877
lfemur -28.5972644838076 0.7736657670623943 -12.039756253812396
ltibia 40.94586616688857
lfoot -6.2564418467656395 1.9331452195906067
ltoes -5.498257098904275
rfemur 0.17770178029804207 6.350534487633823 34.72089883490117
rtibia 28.430948866583567
rfoot -14.426196172057594 -4.068434634604262
rtoes 6.620874407036602
lowerback 1.0 1.3819483254721803 6.080720650162563
upperback -0.08546285691694885 2.7550823701353164 2.1702438067015706
thorax -5.487533347740565 1.2506393030571756 -1.8214098537851162
lowerneck -16.27073798197381 -2.775864332740644 -1.3954662210647721
upperneck 21.319357933701376 -3.6317924396180796 0.4973639644548603
head 9.57997866700529 -1.717370976248306 -0.060174976166356225
lclavicle -1.5370448520554392e-15 -3.3354791630197624e-15
lhumerus -36.05844236660519 6.516064139790349 81.57615618427357
lradius 21.22767761977583
lwrist 1.3788562151467125
lhand -27.53040824645886 22.74411444953398
lfingers nan
lthumb -1.0521314548192136 52.58062257217866
rclavicle -1.190784761649662e-15 -2.9943791178464e-15
rhumerus -25.767566343432488 -15.125977659694446 -80.9332301450935
rradius 25.060042336123203
rwrist -1.0810711248065932
rhand -18.432929667870326 1.0
rfingers nan
rthumb 7.712714898102595 -6.939612217315235
58
root 0.08627588726217583 17.900537211390322 12.832531515851958 -0.7732374619963525 -2.567099970454094 -7.623217508507459
lfemur -28.1859381492741 -2.816018922661931 -10.483341345350016
ltibia 29.11253389385144
lfoot -4.880183076147741 0.020352363575308008
ltoes -7.34495628120035
rfemur 2.9257147716367324 6.487756622215094 35.29730751514041
rtibia 26.565641753952576
rfoot -14.2328010993729 -4.509924270516479
rtoes 5.412916212252864
lowerback 1.0 1.5864565431618747 6.464985445376921
upperback -0.10614902112292243 3.0642723713018616 2.190489860463479
thorax -5.3270585048848496 1.401446373538182 -2.0248814630705363
lowerneck -16.32909794928645 -2.8301927356299297 -1.3676705744915405
upperneck 21.10859398989361 -3.754094109133479 0.5740378130204655
head 9.500170130557352 -1.7561222902359026 -0.04646741123257919
lclavicle -9.207958202438423e-16 -2.7704779660509548e-15
lhumerus -36.40052687379254 7.596330410789562 81.04723807740706
lradius 19.792645491876762
lwrist 0.5100750488848789
lhand -27.618722188399243 22.664836331140197
lfingers nan
lthumb -1.0754941514698495 52.56449413659058
rclavicle -7.128901877885364e-16 -2.541799642846786e-15
rhumerus -24.762137676630434 -14.031191888277025 -81.29525336865309
rradius 25.52407133411253
rwrist -1.3800971027004127
rhand -18.590685537896547 1.0
rfingers nan
rthumb 7.586268728866509 -6.810361526381871
59
root 0.11279438376372625 17.873237728820907 13.668469776012701 -0.2889722238555974 -2.7526902145584597 -7.727412685574109
lfemur -26.715779440381503 -6.937103165820129 -8.94956004535715
ltibia 17.927817463716465
lfoot -5.1019607511561205 -1.325206744357443
ltoes -9.10459477286808
rfemur 5.688750025123641 6.701605438631335 35.32271876466856
rtibia 25.285457564916683
rfoot -14.631416077541612 -4.695683361922774
rtoes 3.741505168104011
lowerback 1.0 1.7138716080819427 6.572129638105574
upperback -0.1689976101754808 3.2534490301689507 2.155262119248835
thorax -5.243202080421839 1.4907727868032004 -2.132475590878376
lowerneck -16.325604669270028 -2.9062793330102323 -1.3534000666539399
upperneck 20.949453836352603 -3.9193192995112467 0.6857787978586697
head 9.42264395391599 -1.8084258127872548 -0.02484070406953899
lclavicle -1.2188755135624503e-15 -3.0665743322125202e-15
lhumerus -36.634745977309926 8.543743203448694 80.5400426798892
lradius 18.444747756979307
lwrist -0.5882081460696416
lhand -27.441387663965358 22.904738491550397
lfingers nan
lthumb -0.8116206800830399 52.96199346287916
rclavicle -8.571492052562249e-16 -2.6761159430813882e-15
rhumerus -23.88552561303813 -13.421127584247117 -81.52672482475064
rradius 25.608120441861796
rwrist -1.135245455751905
rhand -18.735001687786443 1.0
rfingers nan
rthumb 7.50430111889475 -6.696684308119547
60
root 0.15046683730405258 17.826186349709708 14.52548490105298 -0.12406741325639903 -2.8975973336053755 -7.594927647277636
lfemur -25.731165200831178 -7.8121974989495016 -9.19579192208468
ltibia 12.483586452684357
lfoot -5.389312406972216 -0.7437577593868183
ltoes -9.441779210688418
rfemur 7.977889379704928 7.061069258373023 34.95539410496268
rtibia 25.450374001424258
rfoot -15.330354796660963 -4.336439579146472
rtoes 1.7878866900109316
lowerback 1.0 1.7903784094901614 6.420764639068603
upperback -0.18832823873901675 3.3232106101737893 2.0486682909490783
thorax -5.157898977958943 1.5393994930760386 -2.094097959846155
lowerneck -16.250673954859252 -2.989397138872899 -1.359753062855198
upperneck 20.874320650045394 -4.107690961413406 0.8132815798955471
head 9.351814996269113 -1.8706878801922484 0.00093598513675619
lclavicle -9.731778170074202e-16 -2.8218260859217897e-15
lhumerus -36.77597539988112 9.26745440874301 80.10164340731556
lradius 17.343811924610407
lwrist -1.8502322740669173
lhand -27.007582162939553 23.586751631203835
lfingers nan
lthumb -0.2683941204840534 53.865708869954936
rclavicle -5.94920708857044e-16 -2.4072128832034144e-15
rhumerus -23.213987013262667 -13.227623174945188 -81.62905880406007
rradius 25.338195905100438
rwrist -0.43389413154323897
rhand -18.80432622288687 1.0
rfingers nan
rthumb 7.4511321729907705 -6.638729910152659
